# This file uses centimeters as units for non-parametric coordinates.

mtllib plainwall.mtl
g default
v 10.232425 0.000000 -3.607050
v 9.947268 0.000000 -5.407462
v 9.119709 0.000000 -7.031637
v 7.830757 0.000000 -8.320589
v 6.206582 0.000000 -9.148148
v 4.406170 0.000000 -9.433306
v 10.232425 3.468476 -3.607050
v 9.947268 3.468476 -5.407462
v 9.119709 3.468476 -7.031637
v 7.830757 3.468476 -8.320589
v 6.206582 3.468476 -9.148148
v 4.406170 3.468476 -9.433306
v 10.732425 3.468476 -3.607050
v 10.422796 3.468476 -5.561971
v 9.524218 3.468476 -7.325530
v 8.124650 3.468476 -8.725098
v 6.361091 3.468476 -9.623677
v 4.406170 3.468476 -9.933306
v 10.732425 0.000000 -3.607050
v 10.422796 0.000000 -5.561971
v 9.524218 0.000000 -7.325530
v 8.124650 0.000000 -8.725098
v 6.361091 0.000000 -9.623677
v 4.406170 0.000000 -9.933306
vt 0.000000 1.000000
vt 0.050000 1.000000
vt 0.100000 1.000000
vt 0.150000 1.000000
vt 0.200000 1.000000
vt 0.250000 1.000000
vt 0.000000 0.750000
vt 0.050000 0.750000
vt 0.100000 0.750000
vt 0.150000 0.750000
vt 0.200000 0.750000
vt 0.250000 0.750000
vt 0.000000 0.500000
vt 0.050000 0.500000
vt 0.100000 0.500000
vt 0.150000 0.500000
vt 0.200000 0.500000
vt 0.250000 0.500000
vt 0.000000 0.250000
vt 0.050000 0.250000
vt 0.100000 0.250000
vt 0.150000 0.250000
vt 0.200000 0.250000
vt 0.250000 0.250000
vt 0.000000 0.000000
vt 0.050000 0.000000
vt 0.100000 0.000000
vt 0.150000 0.000000
vt 0.200000 0.000000
vt 0.250000 0.000000
vn -0.951057 0.000000 0.309017
vn -0.987688 0.000000 0.156434
vn -0.987688 0.000000 0.156434
vn -0.951057 0.000000 0.309017
vn -0.809017 0.000000 0.587785
vn -0.809017 0.000000 0.587785
vn -0.587785 0.000000 0.809017
vn -0.587785 0.000000 0.809017
vn -0.309017 0.000000 0.951056
vn -0.309017 0.000000 0.951056
vn -0.156435 0.000000 0.987688
vn -0.156435 0.000000 0.987688
vn 0.000000 1.000000 0.000000
vn 0.000000 1.000000 0.000000
vn 0.000000 1.000000 0.000000
vn 0.000000 1.000000 0.000000
vn 0.000000 1.000000 0.000000
vn 0.000000 1.000000 0.000000
vn 0.000000 1.000000 0.000000
vn 0.000000 1.000000 0.000000
vn 0.000000 1.000000 0.000000
vn 0.000000 1.000000 0.000000
vn 0.000000 1.000000 0.000000
vn 0.000000 1.000000 0.000000
vn 0.951057 0.000000 -0.309017
vn 0.987688 0.000000 -0.156434
vn 0.987688 0.000000 -0.156434
vn 0.951057 0.000000 -0.309017
vn 0.809017 0.000000 -0.587785
vn 0.809017 0.000000 -0.587785
vn 0.587785 0.000000 -0.809017
vn 0.587785 0.000000 -0.809017
vn 0.309017 0.000000 -0.951057
vn 0.309017 0.000000 -0.951057
vn 0.156434 0.000000 -0.987688
vn 0.156434 0.000000 -0.987688
vn 0.000000 -1.000000 0.000000
vn 0.000000 -1.000000 0.000000
vn 0.000000 -1.000000 0.000000
vn 0.000000 -1.000000 0.000000
vn 0.000000 -1.000000 0.000000
vn 0.000000 -1.000000 0.000000
vn 0.000000 -1.000000 0.000000
vn 0.000000 -1.000000 0.000000
vn 0.000000 -1.000000 0.000000
vn 0.000000 -1.000000 0.000000
vn 0.000000 -1.000000 0.000000
vn 0.000000 -1.000000 0.000000
vn 0.000000 -0.000000 1.000000
vn 0.000000 -0.000000 1.000000
vn 0.000000 -0.000000 1.000000
vn 0.000000 -0.000000 1.000000
vn -1.000000 0.000000 -0.000000
vn -1.000000 0.000000 -0.000000
vn -1.000000 0.000000 -0.000000
vn -1.000000 0.000000 -0.000000
s 1
g pPipe1
usemtl initialShadingGroup
f 2/2/1 1/1/2 7/7/3 8/8/4
f 3/3/5 2/2/1 8/8/4 9/9/6
f 4/4/7 3/3/5 9/9/6 10/10/8
f 5/5/9 4/4/7 10/10/8 11/11/10
f 6/6/11 5/5/9 11/11/10 12/12/12
s 2
f 8/8/13 7/7/14 13/13/15 14/14/16
f 9/9/17 8/8/13 14/14/16 15/15/18
f 10/10/19 9/9/17 15/15/18 16/16/20
f 11/11/21 10/10/19 16/16/20 17/17/22
f 12/12/23 11/11/21 17/17/22 18/18/24
s 3
f 14/14/25 13/13/26 19/19/27 20/20/28
f 15/15/29 14/14/25 20/20/28 21/21/30
f 16/16/31 15/15/29 21/21/30 22/22/32
f 17/17/33 16/16/31 22/22/32 23/23/34
f 18/18/35 17/17/33 23/23/34 24/24/36
s 4
f 20/20/37 19/19/38 1/25/39 2/26/40
f 21/21/41 20/20/37 2/26/40 3/27/42
f 22/22/43 21/21/41 3/27/42 4/28/44
f 23/23/45 22/22/43 4/28/44 5/29/46
f 24/24/47 23/23/45 5/29/46 6/30/48
s off
f 7/7/49 1/25/50 19/19/51 13/13/52
f 12/12/53 18/18/54 24/24/55 6/6/56
